<svg xmlns="http://www.w3.org/2000/svg" width="88" height="88" viewBox="0 0 88 88"><defs><style>.cls-1{fill:#00d6e6;}.cls-2{fill:none;stroke:#fff;stroke-linecap:round;stroke-linejoin:round;stroke-width:2px;}.cls-3{fill:#fff;fill-rule:evenodd;}</style></defs><g id="Layer_1" data-name="Layer 1"><circle class="cls-1" cx="44" cy="44" r="44"/><path class="cls-2" d="M52.5,58.053a4.4354,4.4354,0,0,1-1.5,3c-1.2,1.2-3.5,1.5-4.5,1.5"/><path class="cls-2" d="M27,48.5527c-1.5-1.5-5-3.8-5-11,0-9,8-12,12.5-11.5s7,2.5,9.5,5"/><path class="cls-2" d="M44.5,31.1048c2.446-2.5,4.892-4.4994,9.295-4.9994a11.18,11.18,0,0,1,12.23,11.4987c0,6.3787-2.688,8.911-4.322,10.4486m-17.203,1.5,7,7.5c1,1,2.9,1.1,4.5-.5a3.5668,3.5668,0,0,0,1-4"/><path class="cls-2" d="M44.5,31.0527l-4,4,3,3a4.4882,4.4882,0,0,0,3,1,5.5762,5.5762,0,0,0,3.688-2l11.312,11a2.8461,2.8461,0,0,1-.5,3.5c-1.2,1.2-3.5,1.5-4.5.5l-7-7"/><path class="cls-3" d="M31.764,51.2853,28.881,53.986a2.0225,2.0225,0,0,1-2.788-.041,1.8557,1.8557,0,0,1,.04-2.69l2.882-2.7008a2.0225,2.0225,0,0,1,2.788.0409A1.8567,1.8567,0,0,1,31.764,51.2853ZM27.596,47.144a4.1116,4.1116,0,0,1,5.667.0832,3.7749,3.7749,0,0,1,1.018,3.6184,4.0811,4.0811,0,0,1,3.076,1.1694,3.7811,3.7811,0,0,1,1.127,2.916,4.1065,4.1065,0,0,1,3.787,1.074,3.7761,3.7761,0,0,1,1.018,3.619,4.0788,4.0788,0,0,1,3.076,1.169,3.7714,3.7714,0,0,1-.08,5.468l-2.882,2.701a4.11,4.11,0,0,1-5.666-.083,3.7725,3.7725,0,0,1-1.019-3.618,4.0835,4.0835,0,0,1-3.076-1.17,3.7811,3.7811,0,0,1-1.127-2.916,4.1073,4.1073,0,0,1-3.787-1.074,3.7743,3.7743,0,0,1-1.018-3.618,4.0835,4.0835,0,0,1-3.076-1.17,3.7716,3.7716,0,0,1,.08-5.4682Zm8.262,8.929-2.882,2.701a2.0215,2.0215,0,0,1-2.788-.041,1.8552,1.8552,0,0,1,.039-2.69l2.883-2.701a2.0225,2.0225,0,0,1,2.788.041A1.8552,1.8552,0,0,1,35.858,56.073Zm2.032,6.691,2.882-2.701a1.8552,1.8552,0,0,0,.039-2.69,2.0224,2.0224,0,0,0-2.788-.041l-2.882,2.701a1.8552,1.8552,0,0,0-.04,2.69A2.0227,2.0227,0,0,0,37.89,62.764Zm6.976,2.088-2.882,2.7a2.0215,2.0215,0,0,1-2.788-.041,1.856,1.856,0,0,1,.039-2.69l2.883-2.701a2.0224,2.0224,0,0,1,2.788.041A1.8564,1.8564,0,0,1,44.866,64.852Z"/></g></svg>