<svg xmlns="http://www.w3.org/2000/svg" xmlns:xlink="http://www.w3.org/1999/xlink" width="88" height="88" viewBox="0 0 88 88"><defs><style>.cls-1{fill:#fff;}.cls-2{fill:#00d6e6;}.cls-3,.cls-5,.cls-6{fill:none;stroke:#fff;}.cls-3{stroke-linecap:round;}.cls-3,.cls-5{stroke-linejoin:round;}.cls-3,.cls-6{stroke-width:2px;}.cls-4{mask:url(#mask);}.cls-5{stroke-width:4px;}</style><mask id="mask" x="36" y="39" width="17" height="14" maskUnits="userSpaceOnUse"><g id="path-19-inside-1"><rect class="cls-1" x="38" y="41" width="13" height="10" rx="1"/></g></mask></defs><g id="Layer_1" data-name="Layer 1"><circle class="cls-2" cx="44" cy="44" r="44"/><path class="cls-3" d="M44.214,64a30.7131,30.7131,0,0,1-17-31l17-8,17.5,8C62.114,52.6,50.214,61.833,44.214,64Z"/><path class="cls-3" d="M44.099,60C31.658,53.641,30.103,40.9231,30.88,35.359L44.099,29l13.607,6.359C58.017,50.9385,48.764,58.278,44.099,60Z"/><g class="cls-4"><rect class="cls-5" x="38" y="41" width="13" height="10" rx="1"/></g><path class="cls-6" d="M41,38a2,2,0,0,1,2-2h3a2,2,0,0,1,2,2v4H41Z"/><path class="cls-1" d="M44.5,44h0A1.5,1.5,0,0,1,46,45.5v1A1.5,1.5,0,0,1,44.5,48h0A1.5,1.5,0,0,1,43,46.5v-1A1.5,1.5,0,0,1,44.5,44Z"/></g></svg>