<svg xmlns="http://www.w3.org/2000/svg" xml:space="preserve" id="Layer_1" x="0" y="0" version="1.1" viewBox="0 0 462.9 604"><style>.st0{fill:#E6F8FA}</style><path d="M448.2 254.4c45.3 66.4-24 145.8-73.3 175.4-1.7 1-3.5 2.1-5.2 3.1v-224c27.8.4 53.6 9.1 78.5 45.5zM2.8 208.1c10.2-49.9 46.5-91.4 88.9-94.5v328.3C17.3 380.4-9.3 267.1 2.8 208.1z" class="st0"/><path fill="#66D3E0" fill-rule="evenodd" d="m85.7 105-1.8-.8c-.7-.3-1.2-1-1.2-1.8V82.6c0-.8.5-1.5 1.2-1.8l1.8-.8v25zm-1.4 64.7 1.4.3v-44l-1.4.3c-.9.2-1.6 1-1.6 2v39.5c0 .9.6 1.7 1.6 1.9zm0 58 1.4.3v-44l-1.4.3c-.9.2-1.6 1-1.6 2v39.5c0 .9.6 1.7 1.6 1.9zm291-88.2-1.6-.5v73l1.6-.5c.8-.3 1.4-1 1.4-1.9v-68.1c0-.9-.6-1.7-1.4-2z" clip-rule="evenodd"/><path fill="#99E1EB" fill-rule="evenodd" d="M121.7 0c-19.9 0-36 16.1-36 36v532c0 19.9 16.1 36 36 36h216c19.9 0 36-16.1 36-36V36c0-19.9-16.1-36-36-36h-216zm-33 38c0-18.8 15.2-34 34-34h214c18.8 0 34 15.2 34 34v529c0 18.8-15.2 34-34 34h-214c-18.8 0-34-15.2-34-34V38z" clip-rule="evenodd"/><path fill="#454A4B" fill-rule="evenodd" d="M122.7 4c-18.8 0-34 15.2-34 34v529c0 18.8 15.2 34 34 34h214c18.8 0 34-15.2 34-34V38c0-18.8-15.2-34-34-34h-214zm-28 33c0-15.5 12.5-28 28-28h51c1.2 0 3.4 1 4 3.1V16c0 7.2 5.8 13 13 13h80c7.2 0 13-5.8 13-13v-2.9c0-1.4 1.4-4.1 4.1-4.1h49.9c15.5 0 28 12.5 28 28v530c0 15.5-12.5 28-28 28h-215c-15.5 0-28-12.5-28-28V37z" clip-rule="evenodd"/></svg>